0
SECTION
2
HEADER
9
$INSUNITS
70
1
9
$ACADVER
1
AC1014
9
$HANDSEED
5
FFFF
0
ENDSEC
0
SECTION
2
TABLES
0
TABLE
2
VPORT
5
8
100
AcDbSymbolTable
0
ENDTAB
0
TABLE
2
LTYPE
5
5
100
AcDbSymbolTable
0
LTYPE
5
14
100
AcDbSymbolTableRecord
100
AcDbLinetypeTableRecord
2
BYBLOCK
70
0
0
LTYPE
5
15
100
AcDbSymbolTableRecord
100
AcDbLinetypeTableRecord
2
BYLAYER
70
0
0
ENDTAB
0
TABLE
2
LAYER
5
2
100
AcDbSymbolTable
70
2
0
LAYER
5
50
100
AcDbSymbolTableRecord
100
AcDbLayerTableRecord
2
0
70
0
6
CONTINUOUS
0
ENDTAB
0
TABLE
2
STYLE
5
3
100
AcDbSymbolTable
70
1
0
STYLE
5
11
100
AcDbSymbolTableRecord
100
AcDbTextStyleTableRecord
2
STANDARD
70
0
0
ENDTAB
0
TABLE
2
VIEW
5
6
100
AcDbSymbolTable
70
0
0
ENDTAB
0
TABLE
2
UCS
5
7
100
AcDbSymbolTable
70
0
0
ENDTAB
0
TABLE
2
APPID
5
9
100
AcDbSymbolTable
70
2
0
APPID
5
12
100
AcDbSymbolTableRecord
100
AcDbRegAppTableRecord
2
ACAD
70
0
0
ENDTAB
0
TABLE
2
DIMSTYLE
5
A
100
AcDbSymbolTable
70
1
0
ENDTAB
0
TABLE
2
BLOCK_RECORD
5
1
100
AcDbSymbolTable
70
1
0
BLOCK_RECORD
5
1F
100
AcDbSymbolTableRecord
100
AcDbBlockTableRecord
2
*MODEL_SPACE
0
BLOCK_RECORD
5
1B
100
AcDbSymbolTableRecord
100
AcDbBlockTableRecord
2
*PAPER_SPACE
0
ENDTAB
0
ENDSEC
0
SECTION
2
BLOCKS
0
BLOCK
5
20
100
AcDbEntity
100
AcDbBlockBegin
2
*MODEL_SPACE
0
ENDBLK
5
21
100
AcDbEntity
100
AcDbBlockEnd
0
BLOCK
5
1C
100
AcDbEntity
100
AcDbBlockBegin
2
*PAPER_SPACE
0
ENDBLK
5
1D
100
AcDbEntity
100
AcDbBlockEnd
0
ENDSEC
0
SECTION
2
ENTITIES
0
ARC
5
100
100
AcDbEntity
8
0
100
AcDbCircle
10
0
20
0
30
0
40
3.5531847133757961
210
0
220
0
230
1
100
AcDbArc
50
0
51
90
0
ARC
5
101
100
AcDbEntity
8
0
100
AcDbCircle
10
1.1597867351132234e-08
20
-0.77261460037059537
30
0
40
2.999999999999631
210
0
220
-0
230
1
100
AcDbArc
50
14.924037645413664
51
90.000000221502944
0
ARC
5
102
100
AcDbEntity
8
0
100
AcDbCircle
10
-6.0897707866739742e-05
20
2.7449597994291591e-05
30
0
40
3.7925948716999449
210
0
220
0
230
1
100
AcDbArc
50
-7.775836108370096
51
89.99908000148686
0
ARC
5
103
100
AcDbEntity
8
0
100
AcDbCircle
10
0
20
0
30
0
40
3.5031847133757967
210
0
220
0
230
1
100
AcDbArc
50
0
51
90
0
LINE
5
104
100
AcDbEntity
8
0
100
AcDbLine
10
-3.5531847133757961
20
0
30
0
11
-3.5031847133757967
21
0
31
0
0
SPLINE
5
105
100
AcDbEntity
8
0
100
AcDbSpline
70
4
71
5
72
21
73
15
74
0
42
0.000000001
43
0.0000000001
44
0.0000000001
40
0
40
0
40
0
40
0
40
0
40
0
40
0.10000000000000001
40
0.20000000000000001
40
0.30000000000000004
40
0.40000000000000002
40
0.5
40
0.59999999999999998
40
0.69999999999999996
40
0.79999999999999993
40
0.89999999999999991
40
0.95526260843356414
40
0.95526260843356414
40
0.95526260843356414
40
0.95526260843356414
40
0.95526260843356414
40
0.95526260843356414
41
1
41
1
41
1
41
1
41
1
41
1
41
1
41
1
41
1
41
1
41
1
41
1
41
1
41
1
41
1
10
2.8988043649980706
20
1.7483827159451283e-16
30
0
10
2.9053708919349366
20
-0.022462266132641056
30
0
10
2.9200928254573721
20
-0.067328099700690397
30
0
10
2.9469414893491597
20
-0.13445134936231404
30
0
10
2.9911120030597913
20
-0.22439427772325277
30
0
10
3.0539953397881354
20
-0.34195278499967835
30
0
10
3.1170672621624731
20
-0.4698430955528542
30
0
10
3.1734828294810393
20
-0.61266222484185007
30
0
10
3.2193744976433294
20
-0.77236656128923697
30
0
10
3.2532782896926897
20
-0.94893723463078594
30
0
10
3.2730723753683049
20
-1.1242678174533141
30
0
10
3.2811410636748199
20
-1.2704642730912041
30
0
10
3.2832840511759067
20
-1.3801077438852607
30
0
10
3.2832565559847757
20
-1.44847044942036
30
0
10
3.2830787700050896
20
-1.4730138362264384
30
0
0
LINE
5
106
100
AcDbEntity
8
0
100
AcDbLine
10
3.3830761465178982
20
-1.5737381914953261
30
0
11
3.6812606436773248
21
-1.573738191495325
31
0
0
LINE
5
107
100
AcDbEntity
8
0
100
AcDbLine
10
3.7812606436773235
20
-1.4737381914953249
30
0
11
3.7812606436773235
21
-1.1129208900832157
31
0
0
LINE
5
108
100
AcDbEntity
8
0
100
AcDbLine
10
3.762483672925252
20
-1.1081287314446386
30
0
11
3.6493523702256518
21
-1.3153318333922401
31
0
0
LINE
5
109
100
AcDbEntity
8
0
100
AcDbLine
10
3.6351848190116782
20
-1.3237381914953248
30
0
11
3.5804123706647775
21
-1.3237381914953248
31
0
0
SPLINE
5
110
100
AcDbEntity
8
0
100
AcDbSpline
70
4
71
5
72
26
73
20
74
0
42
0.000000001
43
0.0000000001
44
0.0000000001
40
0
40
0
40
0
40
0
40
0
40
0
40
0.066666666666666666
40
0.13333333333333333
40
0.20000000000000001
40
0.26666666666666666
40
0.33333333333333331
40
0.39999999999999997
40
0.46666666666666662
40
0.53333333333333333
40
0.59999999999999998
40
0.66666666666666663
40
0.73333333333333328
40
0.79999999999999993
40
0.86666666666666659
40
0.93333333333333324
40
1
40
1
40
1
40
1
40
1
40
1
41
1
41
1
41
1
41
1
41
1
41
1
41
1
41
1
41
1
41
1
41
1
41
1
41
1
41
1
41
1
41
1
41
1
41
1
41
1
41
1
10
3.7576610223293829
20
-0.51310200045948129
30
0
10
3.7591302790067074
20
-0.52449713068084791
30
0
10
3.7613779965997423
20
-0.54708476369224912
30
0
10
3.7626771345260379
20
-0.58035831231914115
30
0
10
3.7602347471977242
20
-0.62349856223722788
30
0
10
3.7501783081032505
20
-0.67538060259930388
30
0
10
3.733311134027395
20
-0.72530964140829923
30
0
10
3.7102673563353741
20
-0.77353883918895339
30
0
10
3.6824196026226774
20
-0.82058645584165457
30
0
10
3.65200477062203
20
-0.8672772389486455
30
0
10
3.6216788664998512
20
-0.91458374182810109
30
0
10
3.5941776900282658
20
-0.96350276916280686
30
0
10
3.571972881576635
20
-1.014929842496511
30
0
10
3.5568474216425781
20
-1.0695010288298823
30
0
10
3.5497075769317159
20
-1.1275240626605951
30
0
10
3.5509228935637114
20
-1.1891097928165442
30
0
10
3.5585967932468132
20
-1.2412181778243558
30
0
10
3.5680695400219991
20
-1.2818713622564748
30
0
10
3.5760247466238009
20
-1.3096669942446293
30
0
10
3.5804123706647775
20
-1.3237381914953248
30
0
0
ARC
5
111
100
AcDbEntity
8
0
100
AcDbCircle
10
3.6351848190116791
20
-1.307596459211861
30
0
40
0.016141732283463838
210
0
220
0
230
1
100
AcDbArc
50
269.99999999999682
51
331.36579863559462
0
ARC
5
112
100
AcDbEntity
8
0
100
AcDbCircle
10
3.3830761465178982
20
-1.4737381914953265
30
0
40
0.099999999999999797
210
0
220
0
230
1
100
AcDbArc
50
179.58497137283246
51
270
0
ARC
5
113
100
AcDbEntity
8
0
100
AcDbCircle
10
3.6812606436773248
20
-1.4737381914953256
30
0
40
0.099999999999999464
210
0
220
0
230
1
100
AcDbArc
50
-90
51
0
0
ARC
5
114
100
AcDbEntity
8
0
100
AcDbCircle
10
3.7712606436773233
20
-1.1129208900832159
30
0
40
0.010000000000000472
210
0
220
-0
230
1
100
AcDbArc
50
0
51
151.36579863559098
0
ARC
5
115
100
AcDbEntity
8
0
100
AcDbCircle
10
-3.7712606436773233
20
-1.1129208900832159
30
0
40
0.009999999999999969
210
0
220
-0
230
1
100
AcDbArc
50
28.634201364406785
51
180
0
LINE
5
116
100
AcDbEntity
8
0
100
AcDbLine
10
-3.7812606436773235
20
-1.4737381914953251
30
0
11
-3.7812606436773235
21
-1.1129208900832159
31
0
0
ARC
5
117
100
AcDbEntity
8
0
100
AcDbCircle
10
-3.3830761465178982
20
-1.4737381914953265
30
0
40
0.099999999999999811
210
0
220
0
230
1
100
AcDbArc
50
-90
51
0.41502862716754274
0
ARC
5
118
100
AcDbEntity
8
0
100
AcDbCircle
10
-3.6812606436773248
20
-1.4737381914953258
30
0
40
0.099999999999999117
210
0
220
0
230
1
100
AcDbArc
50
180
51
270
0
SPLINE
5
119
100
AcDbEntity
8
0
100
AcDbSpline
70
4
71
5
72
26
73
20
74
0
42
0.000000001
43
0.0000000001
44
0.0000000001
40
0
40
0
40
0
40
0
40
0
40
0
40
0.066666666666666666
40
0.13333333333333333
40
0.20000000000000001
40
0.26666666666666666
40
0.33333333333333331
40
0.39999999999999997
40
0.46666666666666662
40
0.53333333333333333
40
0.59999999999999998
40
0.66666666666666663
40
0.73333333333333328
40
0.79999999999999993
40
0.86666666666666659
40
0.93333333333333324
40
1
40
1
40
1
40
1
40
1
40
1
41
1
41
1
41
1
41
1
41
1
41
1
41
1
41
1
41
1
41
1
41
1
41
1
41
1
41
1
41
1
41
1
41
1
41
1
41
1
41
1
10
-3.7576610223293829
20
-0.51310200045948129
30
0
10
-3.7591302790067074
20
-0.52449713068084791
30
0
10
-3.7613779965997423
20
-0.54708476369224912
30
0
10
-3.7626771345260379
20
-0.58035831231914115
30
0
10
-3.7602347471977242
20
-0.62349856223722788
30
0
10
-3.7501783081032505
20
-0.67538060259930388
30
0
10
-3.733311134027395
20
-0.72530964140829923
30
0
10
-3.7102673563353741
20
-0.77353883918895339
30
0
10
-3.6824196026226774
20
-0.82058645584165457
30
0
10
-3.65200477062203
20
-0.8672772389486455
30
0
10
-3.6216788664998512
20
-0.91458374182810109
30
0
10
-3.5941776900282658
20
-0.96350276916280686
30
0
10
-3.571972881576635
20
-1.014929842496511
30
0
10
-3.5568474216425781
20
-1.0695010288298823
30
0
10
-3.5497075769317159
20
-1.1275240626605951
30
0
10
-3.5509228935637114
20
-1.1891097928165442
30
0
10
-3.5585967932468132
20
-1.2412181778243558
30
0
10
-3.5680695400219991
20
-1.2818713622564748
30
0
10
-3.5760247466238009
20
-1.3096669942446293
30
0
10
-3.5804123706647775
20
-1.3237381914953248
30
0
0
ARC
5
120
100
AcDbEntity
8
0
100
AcDbCircle
10
0
20
0
30
0
40
3.5531847133757961
210
0
220
-0
230
1
100
AcDbArc
50
90
51
180
0
ARC
5
121
100
AcDbEntity
8
0
100
AcDbCircle
10
-1.1597867351132234e-08
20
-0.77261460037059548
30
0
40
2.9999999999996314
210
0
220
-0
230
1
100
AcDbArc
50
89.999999778497042
51
165.07596235458635
0
LINE
5
122
100
AcDbEntity
8
0
100
AcDbLine
10
-3.3830761465178982
20
-1.5737381914953263
30
0
11
-3.6812606436773248
21
-1.573738191495325
31
0
0
SPLINE
5
123
100
AcDbEntity
8
0
100
AcDbSpline
70
4
71
5
72
21
73
15
74
0
42
0.000000001
43
0.0000000001
44
0.0000000001
40
0
40
0
40
0
40
0
40
0
40
0
40
0.10000000000000001
40
0.20000000000000001
40
0.30000000000000004
40
0.40000000000000002
40
0.5
40
0.59999999999999998
40
0.69999999999999996
40
0.79999999999999993
40
0.89999999999999991
40
0.95526260843356414
40
0.95526260843356414
40
0.95526260843356414
40
0.95526260843356414
40
0.95526260843356414
40
0.95526260843356414
41
1
41
1
41
1
41
1
41
1
41
1
41
1
41
1
41
1
41
1
41
1
41
1
41
1
41
1
41
1
10
-2.8988043649980706
20
1.7483827159451283e-16
30
0
10
-2.9053708919349366
20
-0.022462266132641056
30
0
10
-2.9200928254573721
20
-0.067328099700690397
30
0
10
-2.9469414893491597
20
-0.13445134936231404
30
0
10
-2.9911120030597913
20
-0.22439427772325277
30
0
10
-3.0539953397881354
20
-0.34195278499967835
30
0
10
-3.1170672621624731
20
-0.4698430955528542
30
0
10
-3.1734828294810393
20
-0.61266222484185007
30
0
10
-3.2193744976433294
20
-0.77236656128923697
30
0
10
-3.2532782896926897
20
-0.94893723463078594
30
0
10
-3.2730723753683049
20
-1.1242678174533141
30
0
10
-3.2811410636748199
20
-1.2704642730912041
30
0
10
-3.2832840511759067
20
-1.3801077438852607
30
0
10
-3.2832565559847757
20
-1.44847044942036
30
0
10
-3.2830787700050896
20
-1.4730138362264384
30
0
0
LINE
5
124
100
AcDbEntity
8
0
100
AcDbLine
10
-3.762483672925252
20
-1.1081287314446391
30
0
11
-3.6493523702256518
21
-1.3153318333922404
31
0
0
ARC
5
125
100
AcDbEntity
8
0
100
AcDbCircle
10
0
20
0
30
0
40
3.5031847133757967
210
0
220
-0
230
1
100
AcDbArc
50
90
51
180
0
ARC
5
126
100
AcDbEntity
8
0
100
AcDbCircle
10
6.0897707866739742e-05
20
2.744959799408648e-05
30
0
40
3.7925948716999471
210
0
220
0
230
1
100
AcDbArc
50
90.000919998513154
51
187.7758361083701
0
LINE
5
127
100
AcDbEntity
8
0
100
AcDbLine
10
-3.6351848190116782
20
-1.3237381914953243
30
0
11
-3.5804123706647775
21
-1.3237381914953243
31
0
0
ARC
5
128
100
AcDbEntity
8
0
100
AcDbCircle
10
-3.6351848190116791
20
-1.3075964592118612
30
0
40
0.016141732283463838
210
0
220
0
230
1
100
AcDbArc
50
208.63420136440536
51
270.00000000000313
0
LINE
5
129
100
AcDbEntity
8
0
100
AcDbLine
10
3.5531847133757961
20
0
30
0
11
3.5031847133757967
21
0
31
0
0
ENDSEC
0
SECTION
2
OBJECTS
0
DICTIONARY
5
C
100
AcDbDictionary
3
ACAD_GROUP
350
D
3
ACAD_MLINESTYLE
350
17
0
DICTIONARY
5
D
100
AcDbDictionary
0
DICTIONARY
5
1A
330
C
100
AcDbDictionary
0
DICTIONARY
5
17
100
AcDbDictionary
0
ENDSEC
0
EOF
