<?xml version="1.0" encoding="UTF-8"?>
<svg xmlns="http://www.w3.org/2000/svg" width="192.662mm" height="136.306mm" viewBox="-700.000122 -0.000008 192.661865 136.305542">
    <path transform="matrix(1.000000 0.000000 0.000000 -1.000000 -603.669128 96.332596)" style="stroke:#000000;stroke-width:0.05mm;fill:none" d="M88.980896,0C88.980896,49.142796,49.142796,88.980896,-0.000004,88.980896C-49.142796,88.980896,-88.980896,49.142796,-88.980896,0L-90.250893,-0.000008C-90.250893,49.8442,-49.8442,90.250893,-0.000004,90.250893C49.8442,90.250893,90.250893,49.8442,90.250893,0L88.980896,0z"/>
    <path transform="matrix(1.000000 0.000000 0.000000 -1.000000 -603.669128 96.332596)" style="stroke:#000000;stroke-width:0.05mm;fill:none" d="M-90.942474,-33.622952L-92.333694,-33.622952C-92.483673,-33.622948,-92.621681,-33.541061,-92.69355,-33.409428L-95.567085,-28.146469C-95.622719,-28.044579,-95.740349,-27.993372,-95.852837,-28.022079C-95.965317,-28.050787,-96.044022,-28.152102,-96.044022,-28.26819L-96.044022,-37.432949C-96.044022,-38.835754,-94.906822,-39.97295,-93.504021,-39.97295L-85.930138,-39.97295C-85.253296,-39.97295,-84.604454,-39.702812,-84.127594,-39.222485C-83.650734,-38.742157,-83.3853,-38.09137,-83.390205,-37.414551L-83.39315,-36.521L-83.389015,-35.636391L-83.377716,-34.760754L-83.359238,-33.894154L-83.333542,-33.03664L-83.300583,-32.188305L-83.2603,-31.349209L-83.212646,-30.519449L-83.157562,-29.699102L-83.095016,-28.888287L-83.024933,-28.087086L-82.947258,-27.295609L-82.861961,-26.513968L-82.768982,-25.742268L-82.668304,-24.980621L-82.559875,-24.229136L-82.44368,-23.487909L-82.319733,-22.757051L-82.188019,-22.036654L-82.048531,-21.326796L-81.901344,-20.627565L-81.74646,-19.939034L-81.583992,-19.26125L-81.414009,-18.594261L-81.23661,-17.938093L-81.051956,-17.292757L-80.860191,-16.658232L-80.661537,-16.034483L-80.4562,-15.42144L-80.244469,-14.819018L-80.026649,-14.227079L-79.803085,-13.645457L-79.574173,-13.07396L-79.340355,-12.51234L-79.102104,-11.960326L-78.859962,-11.417591L-78.614517,-10.88378L-78.366364,-10.358494L-78.11618,-9.841302L-77.864624,-9.331742L-77.360298,-8.333611L-76.85923,-7.360114L-76.367355,-6.407151L-75.890579,-5.470633L-75.659645,-5.007296L-75.434593,-4.546601L-75.216064,-4.088095L-75.004707,-3.631346L-74.801064,-3.17595L-74.605698,-2.721538L-74.419052,-2.267774L-74.2416,-1.814363L-74.073662,-1.361055L-73.915581,-0.907649L-73.767509,-0.453995L-73.629631,0C-64.737831,33.361488,-34.526112,56.575584,-0.000004,56.575584C34.526112,56.575584,64.737831,33.361481,73.629631,0L73.767509,-0.453995L73.915581,-0.907649L74.073662,-1.361055L74.2416,-1.814363L74.419052,-2.267774L74.605698,-2.721538L74.801064,-3.17595L75.004707,-3.631346L75.216064,-4.088095L75.434593,-4.546601L75.659645,-5.007296L75.890579,-5.470633L76.367355,-6.407151L76.85923,-7.360114L77.360298,-8.333611L77.864624,-9.331742L78.11618,-9.841302L78.366364,-10.358494L78.614517,-10.88378L78.859962,-11.417591L79.102104,-11.960326L79.340355,-12.51234L79.574173,-13.07396L79.803085,-13.645457L80.026649,-14.227079L80.244469,-14.819018L80.4562,-15.42144L80.661537,-16.034483L80.860191,-16.658232L81.051956,-17.292757L81.23661,-17.938093L81.414009,-18.594261L81.583992,-19.26125L81.74646,-19.939034L81.901344,-20.627565L82.048531,-21.326796L82.188019,-22.036654L82.319733,-22.757051L82.44368,-23.487909L82.559875,-24.229136L82.668304,-24.980621L82.768982,-25.742268L82.861961,-26.513968L82.947258,-27.295609L83.024933,-28.087086L83.095016,-28.888287L83.157562,-29.699102L83.212646,-30.519449L83.2603,-31.349209L83.300583,-32.188305L83.333542,-33.03664L83.359238,-33.894154L83.377716,-34.760754L83.389015,-35.636391L83.39315,-36.521L83.390205,-37.414551C83.3853,-38.09137,83.650734,-38.742157,84.127594,-39.222485C84.604454,-39.702812,85.253296,-39.97295,85.930138,-39.97295L93.504021,-39.97295C94.906822,-39.97295,96.044022,-38.835754,96.044022,-37.432949L96.044022,-28.26819C96.044022,-28.152102,95.965317,-28.050787,95.852837,-28.022079C95.740349,-27.993372,95.622719,-28.044579,95.567085,-28.146471L92.69355,-33.409428C92.621681,-33.541061,92.483673,-33.622948,92.333694,-33.622948L90.942474,-33.622952L90.841652,-33.289429L90.748161,-32.959007L90.662003,-32.631683L90.583191,-32.307461L90.511734,-31.986357L90.447647,-31.668369L90.390953,-31.35351L90.341682,-31.04179L90.299828,-30.733212L90.265419,-30.427784L90.238457,-30.125517L90.218956,-29.826412L90.206924,-29.530479L90.202354,-29.237717L90.205238,-28.94813L90.215553,-28.661709L90.233284,-28.37845L90.258377,-28.098343L90.290794,-27.821375L90.330475,-27.547527L90.377319,-27.276773L90.431244,-27.009081L90.492165,-26.744415L90.559929,-26.482742L90.634392,-26.223995L90.715363,-25.968126L90.802681,-25.715067L90.896103,-25.464737L91.100281,-24.971916L91.325607,-24.488842L91.569397,-24.014559L91.828667,-23.547991L92.100174,-23.087946L92.380402,-22.633173L92.665825,-22.182367L92.952827,-21.734222L93.237801,-21.287415L93.517242,-20.84066L93.787773,-20.392727L94.046272,-19.942457L94.289848,-19.488789L94.516029,-19.030807L94.722755,-18.56773L94.908356,-18.098932L95.071556,-17.623913L95.21138,-17.142302L95.272308,-16.89893L95.327156,-16.653812L95.375893,-16.406931L95.418442,-16.158264L95.454803,-15.907799L95.484947,-15.655524L95.508881,-15.401436L95.526573,-15.14553L95.53804,-14.8878L95.543282,-14.628252L95.54232,-14.36688L95.535149,-14.103689L95.521774,-13.838684L95.502235,-13.571865L95.476479,-13.303234L95.444588,-13.03279C99.208778,14.532953,90.871269,42.380028,72.577805,63.341629C54.284351,84.30323,27.821571,96.332161,-0.000008,96.332603C-27.821573,96.332153,-54.284344,84.303238,-72.577797,63.34164C-90.871269,42.380032,-99.208778,14.53297,-95.444588,-13.03279L-95.476479,-13.303234L-95.502235,-13.571865L-95.521774,-13.838684L-95.535149,-14.103689L-95.54232,-14.36688L-95.543282,-14.628252L-95.53804,-14.8878L-95.526573,-15.14553L-95.508881,-15.401436L-95.484947,-15.655524L-95.454803,-15.907799L-95.418442,-16.158264L-95.375893,-16.406931L-95.327156,-16.653812L-95.272308,-16.89893L-95.21138,-17.142302L-95.071556,-17.623913L-94.908356,-18.098932L-94.722755,-18.56773L-94.516029,-19.030807L-94.289848,-19.488789L-94.046272,-19.942457L-93.787773,-20.392727L-93.517242,-20.84066L-93.237801,-21.287415L-92.952827,-21.734222L-92.665825,-22.182367L-92.380402,-22.633173L-92.100174,-23.087946L-91.828667,-23.547991L-91.569397,-24.014559L-91.325607,-24.488842L-91.100281,-24.971916L-90.896103,-25.464737L-90.802681,-25.715067L-90.715363,-25.968126L-90.634392,-26.223995L-90.559929,-26.482742L-90.492165,-26.744415L-90.431244,-27.009081L-90.377319,-27.276773L-90.330475,-27.547527L-90.290794,-27.821375L-90.258377,-28.098343L-90.233284,-28.37845L-90.215553,-28.661709L-90.205238,-28.94813L-90.202354,-29.237717L-90.206924,-29.530479L-90.218956,-29.826412L-90.238457,-30.125517L-90.265419,-30.427784L-90.299828,-30.733212L-90.341682,-31.04179L-90.390953,-31.35351L-90.447647,-31.668369L-90.511734,-31.986357L-90.583191,-32.307461L-90.662003,-32.631683L-90.748161,-32.959007L-90.841652,-33.289429L-90.942474,-33.622952z"/>
</svg>
