0
SECTION
2
HEADER
9
$INSUNITS
70
5
9
$ACADVER
1
AC1014
9
$HANDSEED
5
FFFF
0
ENDSEC
0
SECTION
2
TABLES
0
TABLE
2
VPORT
5
8
100
AcDbSymbolTable
0
ENDTAB
0
TABLE
2
LTYPE
5
5
100
AcDbSymbolTable
0
LTYPE
5
14
100
AcDbSymbolTableRecord
100
AcDbLinetypeTableRecord
2
BYBLOCK
70
0
0
LTYPE
5
15
100
AcDbSymbolTableRecord
100
AcDbLinetypeTableRecord
2
BYLAYER
70
0
0
ENDTAB
0
TABLE
2
LAYER
5
2
100
AcDbSymbolTable
70
2
0
LAYER
5
50
100
AcDbSymbolTableRecord
100
AcDbLayerTableRecord
2
0
70
0
6
CONTINUOUS
0
ENDTAB
0
TABLE
2
STYLE
5
3
100
AcDbSymbolTable
70
1
0
STYLE
5
11
100
AcDbSymbolTableRecord
100
AcDbTextStyleTableRecord
2
STANDARD
70
0
0
ENDTAB
0
TABLE
2
VIEW
5
6
100
AcDbSymbolTable
70
0
0
ENDTAB
0
TABLE
2
UCS
5
7
100
AcDbSymbolTable
70
0
0
ENDTAB
0
TABLE
2
APPID
5
9
100
AcDbSymbolTable
70
2
0
APPID
5
12
100
AcDbSymbolTableRecord
100
AcDbRegAppTableRecord
2
ACAD
70
0
0
ENDTAB
0
TABLE
2
DIMSTYLE
5
A
100
AcDbSymbolTable
70
1
0
ENDTAB
0
TABLE
2
BLOCK_RECORD
5
1
100
AcDbSymbolTable
70
1
0
BLOCK_RECORD
5
1F
100
AcDbSymbolTableRecord
100
AcDbBlockTableRecord
2
*MODEL_SPACE
0
BLOCK_RECORD
5
1B
100
AcDbSymbolTableRecord
100
AcDbBlockTableRecord
2
*PAPER_SPACE
0
ENDTAB
0
ENDSEC
0
SECTION
2
BLOCKS
0
BLOCK
5
20
100
AcDbEntity
100
AcDbBlockBegin
2
*MODEL_SPACE
0
ENDBLK
5
21
100
AcDbEntity
100
AcDbBlockEnd
0
BLOCK
5
1C
100
AcDbEntity
100
AcDbBlockBegin
2
*PAPER_SPACE
0
ENDBLK
5
1D
100
AcDbEntity
100
AcDbBlockEnd
0
ENDSEC
0
SECTION
2
ENTITIES
0
LINE
5
100
100
AcDbEntity
8
0
100
AcDbLine
10
0
20
0
30
0
11
35
21
0
31
0
0
LINE
5
101
100
AcDbEntity
8
0
100
AcDbLine
10
35
20
0
30
0
11
35
21
10
31
0
0
LINE
5
102
100
AcDbEntity
8
0
100
AcDbLine
10
35
20
10
30
0
11
6.1629758220391547e-33
21
10
31
0
0
LINE
5
103
100
AcDbEntity
8
0
100
AcDbLine
10
6.1629758220391547e-33
20
10
30
0
11
0
21
0
31
0
0
LINE
5
104
100
AcDbEntity
8
0
100
AcDbLine
10
6.1629758220391547e-33
20
10
30
0
11
2.5999999999999996
21
10
31
0
0
LINE
5
105
100
AcDbEntity
8
0
100
AcDbLine
10
2.5999999999999996
20
10
30
0
11
2.5999999999999996
21
9
31
0
0
LINE
5
106
100
AcDbEntity
8
0
100
AcDbLine
10
2.5999999999999996
20
9
30
0
11
2.4651903288156619e-32
21
9
31
0
0
LINE
5
107
100
AcDbEntity
8
0
100
AcDbLine
10
2.4651903288156619e-32
20
9
30
0
11
6.1629758220391547e-33
21
10
31
0
0
CIRCLE
5
108
100
AcDbEntity
8
0
100
AcDbCircle
10
0.5
20
9.5
30
0
40
0.050000000000000162
210
0
220
0
230
1
0
CIRCLE
5
109
100
AcDbEntity
8
0
100
AcDbCircle
10
2.0999999999999996
20
9.5
30
0
40
0.05000000000000019
210
0
220
0
230
1
0
LINE
5
110
100
AcDbEntity
8
0
100
AcDbLine
10
35
20
10
30
0
11
32.399999999999999
21
10
31
0
0
LINE
5
111
100
AcDbEntity
8
0
100
AcDbLine
10
32.399999999999999
20
10
30
0
11
32.399999999999999
21
9
31
0
0
LINE
5
112
100
AcDbEntity
8
0
100
AcDbLine
10
32.399999999999999
20
9
30
0
11
35
21
9
31
0
0
LINE
5
113
100
AcDbEntity
8
0
100
AcDbLine
10
35
20
9
30
0
11
35
21
10
31
0
0
CIRCLE
5
114
100
AcDbEntity
8
0
100
AcDbCircle
10
32.899999999999999
20
9.5
30
0
40
0.049999999999997977
210
0
220
0
230
1
0
CIRCLE
5
115
100
AcDbEntity
8
0
100
AcDbCircle
10
34.5
20
9.5
30
0
40
0.05000000000000196
210
0
220
0
230
1
0
LINE
5
116
100
AcDbEntity
8
0
100
AcDbLine
10
0
20
11.908448383446089
30
0
11
35
21
11.908448383446089
31
0
0
LINE
5
117
100
AcDbEntity
8
0
100
AcDbLine
10
35
20
11.908448383446089
30
0
11
35
21
14.908448383446089
31
0
0
LINE
5
118
100
AcDbEntity
8
0
100
AcDbLine
10
35
20
14.908448383446089
30
0
11
0
21
14.908448383446089
31
0
0
LINE
5
119
100
AcDbEntity
8
0
100
AcDbLine
10
0
20
14.908448383446089
30
0
11
0
21
11.908448383446089
31
0
0
LINE
5
120
100
AcDbEntity
8
0
100
AcDbLine
10
0
20
11.908448383446089
30
0
11
2.6000000000000001
21
11.908448383446089
31
0
0
LINE
5
121
100
AcDbEntity
8
0
100
AcDbLine
10
2.6000000000000001
20
11.908448383446089
30
0
11
2.6000000000000001
21
12.908448383446089
31
0
0
LINE
5
122
100
AcDbEntity
8
0
100
AcDbLine
10
2.6000000000000001
20
12.908448383446089
30
0
11
0
21
12.908448383446089
31
0
0
LINE
5
123
100
AcDbEntity
8
0
100
AcDbLine
10
0
20
12.908448383446089
30
0
11
0
21
11.908448383446089
31
0
0
LINE
5
124
100
AcDbEntity
8
0
100
AcDbLine
10
35
20
11.908448383446089
30
0
11
32.399999999999999
21
11.908448383446089
31
0
0
LINE
5
125
100
AcDbEntity
8
0
100
AcDbLine
10
32.399999999999999
20
11.908448383446089
30
0
11
32.399999999999999
21
12.908448383446089
31
0
0
LINE
5
126
100
AcDbEntity
8
0
100
AcDbLine
10
32.399999999999999
20
12.908448383446089
30
0
11
35
21
12.908448383446089
31
0
0
LINE
5
127
100
AcDbEntity
8
0
100
AcDbLine
10
35
20
12.908448383446089
30
0
11
35
21
11.908448383446089
31
0
0
CIRCLE
5
128
100
AcDbEntity
8
0
100
AcDbCircle
10
0.5
20
12.408448383446089
30
0
40
0.05000000000000001
210
0
220
0
230
1
0
CIRCLE
5
129
100
AcDbEntity
8
0
100
AcDbCircle
10
2.1000000000000001
20
12.408448383446089
30
0
40
0.050000000000000031
210
0
220
0
230
1
0
CIRCLE
5
130
100
AcDbEntity
8
0
100
AcDbCircle
10
32.899999999999999
20
12.408448383446089
30
0
40
0.050000000000000371
210
0
220
0
230
1
0
CIRCLE
5
131
100
AcDbEntity
8
0
100
AcDbCircle
10
34.5
20
12.408448383446089
30
0
40
0.050000000000001883
210
0
220
0
230
1
0
LINE
5
132
100
AcDbEntity
8
0
100
AcDbLine
10
32.399999999999999
20
12.008448383446089
30
0
11
32.249977782423628
21
12.008448383446089
31
0
0
LINE
5
133
100
AcDbEntity
8
0
100
AcDbLine
10
32.399999999999999
20
12.108448383446088
30
0
11
32.323867885157064
21
12.108448383446088
31
0
0
LINE
5
134
100
AcDbEntity
8
0
100
AcDbLine
10
32.399999999999999
20
12.308448383446088
30
0
11
32.323867885157064
21
12.308448383446088
31
0
0
LINE
5
135
100
AcDbEntity
8
0
100
AcDbLine
10
32.399999999999999
20
12.208448383446088
30
0
11
32.249977782423628
21
12.208448383446088
31
0
0
LINE
5
136
100
AcDbEntity
8
0
100
AcDbLine
10
32.399999999999999
20
12.508448383446087
30
0
11
32.323867885157064
21
12.508448383446087
31
0
0
LINE
5
137
100
AcDbEntity
8
0
100
AcDbLine
10
32.399999999999999
20
12.408448383446087
30
0
11
32.249977782423628
21
12.408448383446087
31
0
0
LINE
5
138
100
AcDbEntity
8
0
100
AcDbLine
10
32.399999999999999
20
12.708448383446086
30
0
11
32.323867885157064
21
12.708448383446086
31
0
0
LINE
5
139
100
AcDbEntity
8
0
100
AcDbLine
10
32.399999999999999
20
12.608448383446087
30
0
11
32.249977782423628
21
12.608448383446087
31
0
0
LINE
5
140
100
AcDbEntity
8
0
100
AcDbLine
10
32.399999999999999
20
12.908448383446085
30
0
11
32.323867885157064
21
12.908448383446085
31
0
0
LINE
5
141
100
AcDbEntity
8
0
100
AcDbLine
10
32.399999999999999
20
12.808448383446086
30
0
11
32.249977782423628
21
12.808448383446086
31
0
0
LINE
5
142
100
AcDbEntity
8
0
100
AcDbLine
10
32.399999999999999
20
13.108448383446085
30
0
11
32.323867885157064
21
13.108448383446085
31
0
0
LINE
5
143
100
AcDbEntity
8
0
100
AcDbLine
10
32.399999999999999
20
13.008448383446085
30
0
11
32.249977782423628
21
13.008448383446085
31
0
0
LINE
5
144
100
AcDbEntity
8
0
100
AcDbLine
10
32.399999999999999
20
13.308448383446084
30
0
11
32.323867885157064
21
13.308448383446084
31
0
0
LINE
5
145
100
AcDbEntity
8
0
100
AcDbLine
10
32.399999999999999
20
13.208448383446084
30
0
11
32.249977782423628
21
13.208448383446084
31
0
0
LINE
5
146
100
AcDbEntity
8
0
100
AcDbLine
10
32.399999999999999
20
13.508448383446083
30
0
11
32.323867885157064
21
13.508448383446083
31
0
0
LINE
5
147
100
AcDbEntity
8
0
100
AcDbLine
10
32.399999999999999
20
13.408448383446084
30
0
11
32.249977782423628
21
13.408448383446084
31
0
0
LINE
5
148
100
AcDbEntity
8
0
100
AcDbLine
10
32.399999999999999
20
13.708448383446083
30
0
11
32.323867885157064
21
13.708448383446083
31
0
0
LINE
5
149
100
AcDbEntity
8
0
100
AcDbLine
10
32.399999999999999
20
13.608448383446083
30
0
11
32.249977782423628
21
13.608448383446083
31
0
0
LINE
5
150
100
AcDbEntity
8
0
100
AcDbLine
10
32.399999999999999
20
13.908448383446082
30
0
11
32.323867885157064
21
13.908448383446082
31
0
0
LINE
5
151
100
AcDbEntity
8
0
100
AcDbLine
10
32.399999999999999
20
13.808448383446082
30
0
11
32.249977782423628
21
13.808448383446082
31
0
0
LINE
5
152
100
AcDbEntity
8
0
100
AcDbLine
10
32.399999999999999
20
14.108448383446081
30
0
11
32.323867885157064
21
14.108448383446081
31
0
0
LINE
5
153
100
AcDbEntity
8
0
100
AcDbLine
10
32.399999999999999
20
14.008448383446082
30
0
11
32.249977782423628
21
14.008448383446082
31
0
0
LINE
5
154
100
AcDbEntity
8
0
100
AcDbLine
10
32.399999999999999
20
14.30844838344608
30
0
11
32.323867885157064
21
14.30844838344608
31
0
0
LINE
5
155
100
AcDbEntity
8
0
100
AcDbLine
10
32.399999999999999
20
14.208448383446081
30
0
11
32.249977782423628
21
14.208448383446081
31
0
0
LINE
5
156
100
AcDbEntity
8
0
100
AcDbLine
10
32.399999999999999
20
14.50844838344608
30
0
11
32.323867885157064
21
14.50844838344608
31
0
0
LINE
5
157
100
AcDbEntity
8
0
100
AcDbLine
10
32.399999999999999
20
14.40844838344608
30
0
11
32.249977782423628
21
14.40844838344608
31
0
0
LINE
5
158
100
AcDbEntity
8
0
100
AcDbLine
10
32.399999999999999
20
14.708448383446079
30
0
11
32.323867885157064
21
14.708448383446079
31
0
0
LINE
5
159
100
AcDbEntity
8
0
100
AcDbLine
10
32.399999999999999
20
14.608448383446079
30
0
11
32.249977782423628
21
14.608448383446079
31
0
0
LINE
5
160
100
AcDbEntity
8
0
100
AcDbLine
10
32.399999999999999
20
14.908448383446078
30
0
11
32.323867885157064
21
14.908448383446078
31
0
0
LINE
5
161
100
AcDbEntity
8
0
100
AcDbLine
10
32.399999999999999
20
14.808448383446079
30
0
11
32.249977782423628
21
14.808448383446079
31
0
0
LINE
5
162
100
AcDbEntity
8
0
100
AcDbLine
10
32.399999999999999
20
12.908448383446085
30
0
11
32.399999999999999
21
14.908448383446078
31
0
0
ENDSEC
0
SECTION
2
OBJECTS
0
DICTIONARY
5
C
100
AcDbDictionary
3
ACAD_GROUP
350
D
3
ACAD_MLINESTYLE
350
17
0
DICTIONARY
5
D
100
AcDbDictionary
0
DICTIONARY
5
1A
330
C
100
AcDbDictionary
0
DICTIONARY
5
17
100
AcDbDictionary
0
ENDSEC
0
EOF
